<?xml version="1.0" encoding="UTF-8" standalone="no"?>
<!-- Created with Inkscape (http://www.inkscape.org/) -->

<svg
   width="162.07439mm"
   height="37.018295mm"
   viewBox="0 0 162.07439 37.018295"
   version="1.1"
   id="svg5"
   xml:space="preserve"
   inkscape:version="1.2.2 (732a01da63, 2022-12-09)"
   sodipodi:docname="logo-lt.svg"
   xmlns:inkscape="http://www.inkscape.org/namespaces/inkscape"
   xmlns:sodipodi="http://sodipodi.sourceforge.net/DTD/sodipodi-0.dtd"
   xmlns="http://www.w3.org/2000/svg"
   xmlns:svg="http://www.w3.org/2000/svg"><sodipodi:namedview
     id="namedview7"
     pagecolor="#505050"
     bordercolor="#eeeeee"
     borderopacity="1"
     inkscape:showpageshadow="0"
     inkscape:pageopacity="0"
     inkscape:pagecheckerboard="0"
     inkscape:deskcolor="#505050"
     inkscape:document-units="mm"
     showgrid="false"
     showguides="true"
     inkscape:zoom="2.0000001"
     inkscape:cx="273.74999"
     inkscape:cy="53.999997"
     inkscape:window-width="2560"
     inkscape:window-height="1009"
     inkscape:window-x="-8"
     inkscape:window-y="-8"
     inkscape:window-maximized="1"
     inkscape:current-layer="g221" /><defs
     id="defs2"><inkscape:perspective
       sodipodi:type="inkscape:persp3d"
       inkscape:vp_x="0 : -111.48171 : 1"
       inkscape:vp_y="0 : 999.99997 : 0"
       inkscape:vp_z="210 : -111.48171 : 1"
       inkscape:persp3d-origin="105 : -160.98171 : 1"
       id="perspective1749" /></defs><g
     id="g221"
     transform="translate(-22.028004,-133.40806)"><g
       id="g321-9-6"
       transform="matrix(1.0488988,0,0,1.0488988,-19.634107,-81.293592)"
       style="display:inline;fill:#c42847;fill-opacity:1"><path
         style="fill:#c42847;fill-opacity:1;stroke-width:0.44222"
         d="m 54.16197,239.98497 -10e-4,-7.98422 -7.408974,-4.27758 v -9.04043 l -7.032104,-4.05999 v 17.17798 z"
         id="path233-9-4-0-0"
         sodipodi:nodetypes="ccccccc" /><path
         style="fill:#c42847;fill-opacity:1;stroke-width:0.44222"
         d="m 55.158828,239.98388 6.932295,-4.00236 v -17.82411 l -15.41567,-8.90023 -6.955595,4.00781 15.434784,8.91128 z"
         id="path235-3-1-9-1" /><path
         style="fill:#c42847;fill-opacity:1;stroke-width:0.44222"
         d="m 62.996897,235.40105 6.962011,-4.02402 v -17.79369 l -15.399499,-8.8909 -6.970568,4.02446 15.391153,8.84871 z"
         id="path237-5-3-1-5"
         sodipodi:nodetypes="ccccccc" /></g><g
       aria-label="uverest"
       id="text497-2-9-9"
       style="font-size:34.0559px;font-family:Arial;-inkscape-font-specification:'Arial, Normal';fill:#f9f9f9;stroke-width:6.1542"
       inkscape:label="typography logo"
       transform="translate(0.77895561,0.04822424)"><path
         d="m 74.835776,138.1078 v 18.66263 h -3.099087 v -2.75853 q -0.885453,1.43035 -2.486081,2.24769 -1.566571,0.78329 -3.473702,0.78329 -2.179577,0 -3.916428,-0.88545 -1.736851,-0.91951 -2.758528,-2.72448 -0.987621,-1.80496 -0.987621,-4.39321 V 138.1078 h 3.065031 v 10.52327 q 0,2.75853 1.396292,4.25699 1.396292,1.4644 3.814261,1.4644 2.48608,0 3.916428,-1.53251 1.430348,-1.53252 1.430348,-4.46133 V 138.1078 Z"
         style="font-family:Poppins;-inkscape-font-specification:Poppins;fill:#f9f9f9"
         id="path476" /><path
         d="M 87.027767,153.90974 92.81727,138.1078 h 3.303423 l -7.322019,18.66263 H 85.188749 L 77.86673,138.1078 h 3.337478 z"
         style="font-family:Poppins;-inkscape-font-specification:Poppins;fill:#f9f9f9"
         id="path478" /><path
         d="m 116.2137,146.72394 q 0,0.88545 -0.10216,1.87308 h -14.91649 q 0.17028,2.75852 1.87308,4.32509 1.73685,1.53252 4.18887,1.53252 2.0093,0 3.33748,-0.91951 1.36224,-0.95356 1.90713,-2.52014 h 3.33748 q -0.74923,2.69042 -2.99692,4.39322 -2.24769,1.66873 -5.58517,1.66873 -2.65636,0 -4.76782,-1.19195 -2.07741,-1.19196 -3.26937,-3.37154 -1.191956,-2.21363 -1.191956,-5.10838 0,-2.89475 1.1579,-5.07433 1.157896,-2.17958 3.235306,-3.33748 2.11147,-1.19196 4.83594,-1.19196 2.65636,0 4.69972,1.15791 2.04335,1.1579 3.13314,3.20125 1.12384,2.0093 1.12384,4.56349 z m -3.20125,-0.64706 q 0,-1.77091 -0.78329,-3.03098 -0.78328,-1.29412 -2.14552,-1.94118 -1.32818,-0.68112 -2.96286,-0.68112 -2.34986,0 -4.0186,1.49846 -1.63468,1.49846 -1.87307,4.15482 z"
         style="font-family:Poppins;-inkscape-font-specification:Poppins;fill:#f9f9f9"
         id="path480" /><path
         d="m 123.39953,141.13877 q 0.81734,-1.60062 2.3158,-2.48608 1.53251,-0.88545 3.71209,-0.88545 v 3.20125 h -0.81734 q -5.21055,0 -5.21055,5.65328 v 10.14866 h -3.09909 V 138.1078 h 3.09909 z"
         style="font-family:Poppins;-inkscape-font-specification:Poppins;fill:#f9f9f9"
         id="path482" /><path
         d="m 150.03122,146.72394 q 0,0.88545 -0.10217,1.87308 h -14.91649 q 0.17028,2.75852 1.87308,4.32509 1.73685,1.53252 4.18888,1.53252 2.00929,0 3.33747,-0.91951 1.36224,-0.95356 1.90713,-2.52014 h 3.33748 q -0.74923,2.69042 -2.99692,4.39322 -2.24769,1.66873 -5.58516,1.66873 -2.65637,0 -4.76783,-1.19195 -2.07741,-1.19196 -3.26937,-3.37154 -1.19195,-2.21363 -1.19195,-5.10838 0,-2.89475 1.1579,-5.07433 1.1579,-2.17958 3.23531,-3.33748 2.11146,-1.19196 4.83594,-1.19196 2.65636,0 4.69971,1.15791 2.04335,1.1579 3.13314,3.20125 1.12385,2.0093 1.12385,4.56349 z m -3.20126,-0.64706 q 0,-1.77091 -0.78328,-3.03098 -0.78329,-1.29412 -2.14553,-1.94118 -1.32818,-0.68112 -2.96286,-0.68112 -2.34986,0 -4.01859,1.49846 -1.63469,1.49846 -1.87308,4.15482 z"
         style="font-family:Poppins;-inkscape-font-specification:Poppins;fill:#f9f9f9"
         id="path484" /><path
         d="m 160.7248,157.07693 q -2.14553,0 -3.84832,-0.71517 -1.7028,-0.74923 -2.69042,-2.04335 -0.98762,-1.32818 -1.08979,-3.03098 h 3.20126 q 0.13622,1.39629 1.29412,2.28175 1.19196,0.88545 3.09909,0.88545 1.77091,0 2.79258,-0.78329 1.02168,-0.78328 1.02168,-1.97524 0,-1.22601 -1.08979,-1.80496 -1.08979,-0.61301 -3.37153,-1.19196 -2.07741,-0.54489 -3.40559,-1.08979 -1.29413,-0.57895 -2.24769,-1.66873 -0.91951,-1.12385 -0.91951,-2.92881 0,-1.43035 0.8514,-2.62231 0.85139,-1.19195 2.41797,-1.87307 1.56657,-0.71518 3.57587,-0.71518 3.09908,0 5.00621,1.56658 1.90713,1.56657 2.04336,4.29104 h -3.09909 q -0.10217,-1.4644 -1.19196,-2.34986 -1.05573,-0.88545 -2.86069,-0.88545 -1.66874,0 -2.65636,0.71517 -0.98762,0.71518 -0.98762,1.87308 0,0.91951 0.57895,1.53251 0.613,0.57895 1.49846,0.95357 0.91951,0.34056 2.52013,0.78328 2.0093,0.5449 3.26937,1.08979 1.26007,0.51084 2.14552,1.56657 0.91951,1.05574 0.95357,2.75853 0,1.53252 -0.8514,2.75853 -0.8514,1.22601 -2.41797,1.94119 -1.53252,0.68111 -3.54181,0.68111 z"
         style="font-family:Poppins;-inkscape-font-specification:Poppins;fill:#f9f9f9"
         id="path486" /><path
         d="m 175.67532,140.66199 v 11.00006 q 0,1.36223 0.57895,1.94118 0.57895,0.5449 2.0093,0.5449 h 2.28174 v 2.6223 h -2.79258 q -2.58825,0 -3.88238,-1.19196 -1.29412,-1.19195 -1.29412,-3.91642 v -11.00006 h -2.41797 v -2.55419 h 2.41797 v -4.69972 h 3.09909 v 4.69972 h 4.86999 v 2.55419 z"
         style="font-family:Poppins;-inkscape-font-specification:Poppins;fill:#f9f9f9"
         id="path488" /></g><g
       aria-label="do ideal ao digital"
       id="text497-8-8-7-8"
       style="font-size:9.52519px;font-family:Arial;-inkscape-font-specification:'Arial, Normal';display:inline;fill:#c42847;stroke-width:1.72128"
       inkscape:label="typography slogan"
       transform="translate(0.99306561,0.91852924)"><path
         d="m 95.499793,164.35532 q 0,-0.80012 0.323857,-1.40021 0.323856,-0.60961 0.885842,-0.94299 0.571512,-0.33338 1.276376,-0.33338 0.609612,0 1.133497,0.28575 0.523886,0.27623 0.800116,0.73344 v -2.7623 h 0.876319 v 7.04864 h -0.876319 v -0.9811 q -0.25718,0.46674 -0.762015,0.77154 -0.504835,0.29528 -1.181123,0.29528 -0.695339,0 -1.266851,-0.3429 -0.561986,-0.34291 -0.885842,-0.96205 -0.323857,-0.61913 -0.323857,-1.40972 z m 4.419688,0.01 q 0,-0.59056 -0.238129,-1.02872 -0.23813,-0.43816 -0.647713,-0.66676 -0.400058,-0.23813 -0.885843,-0.23813 -0.485785,0 -0.885843,0.2286 -0.400058,0.22861 -0.638187,0.66677 -0.23813,0.43815 -0.23813,1.02872 0,0.60008 0.23813,1.04777 0.238129,0.43816 0.638187,0.67629 0.400058,0.2286 0.885843,0.2286 0.485785,0 0.885843,-0.2286 0.409583,-0.23813 0.647713,-0.67629 0.238129,-0.44769 0.238129,-1.03825 z"
         style="font-family:Poppins;-inkscape-font-specification:Poppins"
         id="path491" /><path
         d="m 104.5392,167.06999 q -0.73344,0 -1.33352,-0.33338 -0.59056,-0.33338 -0.93347,-0.94299 -0.33338,-0.61914 -0.33338,-1.42878 0,-0.80012 0.3429,-1.40973 0.35244,-0.61913 0.95252,-0.94299 0.60009,-0.33338 1.34306,-0.33338 0.74296,0 1.34305,0.33338 0.60008,0.32386 0.94299,0.93347 0.35243,0.60961 0.35243,1.41925 0,0.80964 -0.36195,1.42878 -0.35244,0.60961 -0.96205,0.94299 -0.60961,0.33338 -1.35258,0.33338 z m 0,-0.76201 q 0.46674,0 0.87632,-0.21908 0.40959,-0.21908 0.65724,-0.65724 0.25718,-0.43816 0.25718,-1.06682 0,-0.62866 -0.24765,-1.06682 -0.24766,-0.43816 -0.64772,-0.64771 -0.40006,-0.21908 -0.86679,-0.21908 -0.47626,0 -0.87632,0.21908 -0.39053,0.20955 -0.62866,0.64771 -0.23813,0.43816 -0.23813,1.06682 0,0.63819 0.2286,1.07635 0.23813,0.43816 0.62867,0.65724 0.39053,0.20955 0.85726,0.20955 z"
         style="font-family:Poppins;-inkscape-font-specification:Poppins"
         id="path493" /><path
         d="m 111.34971,160.91672 q -0.24765,0 -0.41911,-0.17145 -0.17145,-0.17145 -0.17145,-0.41911 0,-0.24765 0.17145,-0.41911 0.17146,-0.17145 0.41911,-0.17145 0.23813,0 0.40006,0.17145 0.17145,0.17146 0.17145,0.41911 0,0.24766 -0.17145,0.41911 -0.16193,0.17145 -0.40006,0.17145 z m 0.41911,0.84774 v 5.21981 h -0.86679 v -5.21981 z"
         style="font-family:Poppins;-inkscape-font-specification:Poppins"
         id="path495" /><path
         d="m 112.92137,164.35532 q 0,-0.80012 0.32386,-1.40021 0.32385,-0.60961 0.88584,-0.94299 0.57151,-0.33338 1.27638,-0.33338 0.60961,0 1.13349,0.28575 0.52389,0.27623 0.80012,0.73344 v -2.7623 h 0.87632 v 7.04864 h -0.87632 v -0.9811 q -0.25718,0.46674 -0.76202,0.77154 -0.50483,0.29528 -1.18112,0.29528 -0.69534,0 -1.26685,-0.3429 -0.56199,-0.34291 -0.88584,-0.96205 -0.32386,-0.61913 -0.32386,-1.40972 z m 4.41969,0.01 q 0,-0.59056 -0.23813,-1.02872 -0.23813,-0.43816 -0.64771,-0.66676 -0.40006,-0.23813 -0.88585,-0.23813 -0.48578,0 -0.88584,0.2286 -0.40006,0.22861 -0.63819,0.66677 -0.23813,0.43815 -0.23813,1.02872 0,0.60008 0.23813,1.04777 0.23813,0.43816 0.63819,0.67629 0.40006,0.2286 0.88584,0.2286 0.48579,0 0.88585,-0.2286 0.40958,-0.23813 0.64771,-0.67629 0.23813,-0.44769 0.23813,-1.03825 z"
         style="font-family:Poppins;-inkscape-font-specification:Poppins"
         id="path497" /><path
         d="m 124.44686,164.17434 q 0,0.24765 -0.0286,0.52388 h -4.17203 q 0.0476,0.77154 0.52388,1.2097 0.48579,0.42864 1.1716,0.42864 0.56199,0 0.93347,-0.25718 0.38101,-0.26671 0.53341,-0.70487 h 0.93347 q -0.20955,0.75249 -0.83822,1.22875 -0.62866,0.46673 -1.56213,0.46673 -0.74296,0 -1.33352,-0.33338 -0.58104,-0.33338 -0.91442,-0.94299 -0.33338,-0.61914 -0.33338,-1.42878 0,-0.80964 0.32385,-1.41925 0.32386,-0.60961 0.9049,-0.93347 0.59056,-0.33338 1.35257,-0.33338 0.74297,0 1.31448,0.32385 0.57151,0.32386 0.87632,0.89537 0.31433,0.56199 0.31433,1.27638 z m -0.89537,-0.18098 q 0,-0.49531 -0.21908,-0.84774 -0.21908,-0.36196 -0.60009,-0.54294 -0.37148,-0.1905 -0.82869,-0.1905 -0.65724,0 -1.12397,0.41911 -0.45721,0.4191 -0.52389,1.16207 z"
         style="font-family:Poppins;-inkscape-font-specification:Poppins"
         id="path499" /><path
         d="m 125.26603,164.35532 q 0,-0.80012 0.32386,-1.40021 0.32385,-0.60961 0.88584,-0.94299 0.57151,-0.33338 1.26685,-0.33338 0.68581,0 1.19065,0.29528 0.50483,0.29528 0.75249,0.74296 v -0.95252 h 0.87632 v 5.21981 h -0.87632 v -0.97157 q -0.25718,0.45721 -0.77154,0.76201 -0.50484,0.29528 -1.18113,0.29528 -0.69533,0 -1.25732,-0.3429 -0.56199,-0.34291 -0.88584,-0.96205 -0.32386,-0.61913 -0.32386,-1.40972 z m 4.41969,0.01 q 0,-0.59056 -0.23813,-1.02872 -0.23813,-0.43816 -0.64771,-0.66676 -0.40006,-0.23813 -0.88585,-0.23813 -0.48578,0 -0.88584,0.2286 -0.40006,0.22861 -0.63819,0.66677 -0.23813,0.43815 -0.23813,1.02872 0,0.60008 0.23813,1.04777 0.23813,0.43816 0.63819,0.67629 0.40006,0.2286 0.88584,0.2286 0.48579,0 0.88585,-0.2286 0.40958,-0.23813 0.64771,-0.67629 0.23813,-0.44769 0.23813,-1.03825 z"
         style="font-family:Poppins;-inkscape-font-specification:Poppins"
         id="path501" /><path
         d="m 132.89571,159.93563 v 7.04864 h -0.86679 v -7.04864 z"
         style="font-family:Poppins;-inkscape-font-specification:Poppins"
         id="path503" /><path
         d="m 136.59149,164.35532 q 0,-0.80012 0.32386,-1.40021 0.32385,-0.60961 0.88584,-0.94299 0.57151,-0.33338 1.26685,-0.33338 0.68581,0 1.19065,0.29528 0.50483,0.29528 0.75249,0.74296 v -0.95252 h 0.87632 v 5.21981 h -0.87632 v -0.97157 q -0.25718,0.45721 -0.77154,0.76201 -0.50484,0.29528 -1.18112,0.29528 -0.69534,0 -1.25733,-0.3429 -0.56199,-0.34291 -0.88584,-0.96205 -0.32386,-0.61913 -0.32386,-1.40972 z m 4.41969,0.01 q 0,-0.59056 -0.23813,-1.02872 -0.23813,-0.43816 -0.64771,-0.66676 -0.40006,-0.23813 -0.88585,-0.23813 -0.48578,0 -0.88584,0.2286 -0.40006,0.22861 -0.63819,0.66677 -0.23813,0.43815 -0.23813,1.02872 0,0.60008 0.23813,1.04777 0.23813,0.43816 0.63819,0.67629 0.40006,0.2286 0.88584,0.2286 0.48579,0 0.88585,-0.2286 0.40958,-0.23813 0.64771,-0.67629 0.23813,-0.44769 0.23813,-1.03825 z"
         style="font-family:Poppins;-inkscape-font-specification:Poppins"
         id="path505" /><path
         d="m 145.63091,167.06999 q -0.73344,0 -1.33353,-0.33338 -0.59056,-0.33338 -0.93347,-0.94299 -0.33338,-0.61914 -0.33338,-1.42878 0,-0.80012 0.34291,-1.40973 0.35243,-0.61913 0.95251,-0.94299 0.60009,-0.33338 1.34306,-0.33338 0.74296,0 1.34305,0.33338 0.60008,0.32386 0.94299,0.93347 0.35243,0.60961 0.35243,1.41925 0,0.80964 -0.36195,1.42878 -0.35244,0.60961 -0.96205,0.94299 -0.60961,0.33338 -1.35257,0.33338 z m 0,-0.76201 q 0.46673,0 0.87631,-0.21908 0.40959,-0.21908 0.65724,-0.65724 0.25718,-0.43816 0.25718,-1.06682 0,-0.62866 -0.24765,-1.06682 -0.24766,-0.43816 -0.64772,-0.64771 -0.40005,-0.21908 -0.86679,-0.21908 -0.47626,0 -0.87632,0.21908 -0.39053,0.20955 -0.62866,0.64771 -0.23813,0.43816 -0.23813,1.06682 0,0.63819 0.22861,1.07635 0.23813,0.43816 0.62866,0.65724 0.39053,0.20955 0.85727,0.20955 z"
         style="font-family:Poppins;-inkscape-font-specification:Poppins"
         id="path507" /><path
         d="m 151.66987,164.35532 q 0,-0.80012 0.32386,-1.40021 0.32385,-0.60961 0.88584,-0.94299 0.57151,-0.33338 1.27638,-0.33338 0.60961,0 1.13349,0.28575 0.52389,0.27623 0.80012,0.73344 v -2.7623 h 0.87632 v 7.04864 h -0.87632 v -0.9811 q -0.25718,0.46674 -0.76202,0.77154 -0.50483,0.29528 -1.18112,0.29528 -0.69534,0 -1.26685,-0.3429 -0.56199,-0.34291 -0.88584,-0.96205 -0.32386,-0.61913 -0.32386,-1.40972 z m 4.41969,0.01 q 0,-0.59056 -0.23813,-1.02872 -0.23813,-0.43816 -0.64771,-0.66676 -0.40006,-0.23813 -0.88585,-0.23813 -0.48578,0 -0.88584,0.2286 -0.40006,0.22861 -0.63819,0.66677 -0.23813,0.43815 -0.23813,1.02872 0,0.60008 0.23813,1.04777 0.23813,0.43816 0.63819,0.67629 0.40006,0.2286 0.88584,0.2286 0.48579,0 0.88585,-0.2286 0.40958,-0.23813 0.64771,-0.67629 0.23813,-0.44769 0.23813,-1.03825 z"
         style="font-family:Poppins;-inkscape-font-specification:Poppins"
         id="path509" /><path
         d="m 158.88045,160.91672 q -0.24766,0 -0.41911,-0.17145 -0.17146,-0.17145 -0.17146,-0.41911 0,-0.24765 0.17146,-0.41911 0.17145,-0.17145 0.41911,-0.17145 0.23813,0 0.40005,0.17145 0.17146,0.17146 0.17146,0.41911 0,0.24766 -0.17146,0.41911 -0.16192,0.17145 -0.40005,0.17145 z m 0.4191,0.84774 v 5.21981 h -0.86679 v -5.21981 z"
         style="font-family:Poppins;-inkscape-font-specification:Poppins"
         id="path511" /><path
         d="m 162.92865,161.67874 q 0.67629,0 1.18112,0.29528 0.51437,0.29528 0.76202,0.74296 v -0.95252 h 0.87632 v 5.33411 q 0,0.71439 -0.30481,1.26685 -0.3048,0.56199 -0.87632,0.87632 -0.56198,0.31433 -1.31447,0.31433 -1.02872,0 -1.71454,-0.48579 -0.68581,-0.48578 -0.80964,-1.324 h 0.85727 q 0.14288,0.47626 0.59056,0.76202 0.44769,0.29528 1.07635,0.29528 0.71439,0 1.16207,-0.44768 0.45721,-0.44769 0.45721,-1.25733 v -1.0954 q -0.25718,0.45721 -0.76202,0.76202 -0.50483,0.3048 -1.18112,0.3048 -0.69534,0 -1.26685,-0.3429 -0.56199,-0.34291 -0.88584,-0.96205 -0.32386,-0.61913 -0.32386,-1.40972 0,-0.80012 0.32386,-1.40021 0.32385,-0.60961 0.88584,-0.94299 0.57151,-0.33338 1.26685,-0.33338 z m 1.94314,2.6861 q 0,-0.59056 -0.23813,-1.02872 -0.23813,-0.43816 -0.64771,-0.66676 -0.40006,-0.23813 -0.88585,-0.23813 -0.48578,0 -0.88584,0.2286 -0.40006,0.22861 -0.63819,0.66677 -0.23813,0.43815 -0.23813,1.02872 0,0.60008 0.23813,1.04777 0.23813,0.43816 0.63819,0.67629 0.40006,0.2286 0.88584,0.2286 0.48579,0 0.88585,-0.2286 0.40958,-0.23813 0.64771,-0.67629 0.23813,-0.44769 0.23813,-1.03825 z"
         style="font-family:Poppins;-inkscape-font-specification:Poppins"
         id="path513" /><path
         d="m 167.66268,160.91672 q -0.24765,0 -0.41911,-0.17145 -0.17145,-0.17145 -0.17145,-0.41911 0,-0.24765 0.17145,-0.41911 0.17146,-0.17145 0.41911,-0.17145 0.23813,0 0.40006,0.17145 0.17145,0.17146 0.17145,0.41911 0,0.24766 -0.17145,0.41911 -0.16193,0.17145 -0.40006,0.17145 z m 0.41911,0.84774 v 5.21981 H 167.215 v -5.21981 z"
         style="font-family:Poppins;-inkscape-font-specification:Poppins"
         id="path515" /><path
         d="m 170.61549,162.47885 v 3.07664 q 0,0.38101 0.16193,0.54294 0.16193,0.1524 0.56198,0.1524 h 0.63819 v 0.73344 h -0.78106 q -0.72392,0 -1.08588,-0.33338 -0.36195,-0.33339 -0.36195,-1.0954 v -3.07664 h -0.67629 v -0.71439 h 0.67629 v -1.31447 h 0.86679 v 1.31447 h 1.3621 v 0.71439 z"
         style="font-family:Poppins;-inkscape-font-specification:Poppins"
         id="path517" /><path
         d="m 172.70151,164.35532 q 0,-0.80012 0.32386,-1.40021 0.32386,-0.60961 0.88584,-0.94299 0.57151,-0.33338 1.26685,-0.33338 0.68582,0 1.19065,0.29528 0.50484,0.29528 0.75249,0.74296 v -0.95252 h 0.87632 v 5.21981 h -0.87632 v -0.97157 q -0.25718,0.45721 -0.77154,0.76201 -0.50483,0.29528 -1.18112,0.29528 -0.69534,0 -1.25733,-0.3429 -0.56198,-0.34291 -0.88584,-0.96205 -0.32386,-0.61913 -0.32386,-1.40972 z m 4.41969,0.01 q 0,-0.59056 -0.23813,-1.02872 -0.23813,-0.43816 -0.64771,-0.66676 -0.40006,-0.23813 -0.88584,-0.23813 -0.48579,0 -0.88585,0.2286 -0.40005,0.22861 -0.63818,0.66677 -0.23813,0.43815 -0.23813,1.02872 0,0.60008 0.23813,1.04777 0.23813,0.43816 0.63818,0.67629 0.40006,0.2286 0.88585,0.2286 0.48578,0 0.88584,-0.2286 0.40958,-0.23813 0.64771,-0.67629 0.23813,-0.44769 0.23813,-1.03825 z"
         style="font-family:Poppins;-inkscape-font-specification:Poppins"
         id="path519" /><path
         d="m 180.3312,159.93563 v 7.04864 h -0.8668 v -7.04864 z"
         style="font-family:Poppins;-inkscape-font-specification:Poppins"
         id="path521" /></g></g></svg>
